# xmcd
#
# Track frame offsets: 
#        150
#        13729
#        27259
#        39149
#        52431
#        64539
#        78014
#        89569
#        103549
#        116621
#        129659
#        142261
#        154902
#        168200
#        180486
#        192370
#        204259
#        217528
#        232181
#        246746
#        261678
#        276258
#        290764
#        305208
#
# Disc length: 4259 seconds
#
# Revision: 0
# Processed by: cddbd v1.5.2PL0 Copyright (c) Steve Scherf et al.
# Submitted via: ExactAudioCopyFreeDBPlugin 1.0
#
DISCID=6d10a118
DTITLE=Lee Brown - Complete Recorded Works 1937 to January 1940
DYEAR=1995
DGENRE=Blues
TTITLE0=Pitchin' Boogie
TTITLE1=She's My All and All
TTITLE2=Carpenter Man Blues
TTITLE3=Little Girl Little Girl
TTITLE4=Moanin' Dove
TTITLE5=New Little Girl Little Girl
TTITLE6=I Can Lay It on Down
TTITLE7=Down by the M and O
TTITLE8=Jeff Davis Highway
TTITLE9=Let Me Be Your Bo Weavil
TTITLE10=Forsaken Blues
TTITLE11=Lemon Roller
TTITLE12=Low Down Feelin'
TTITLE13=Little Brown Skin Girl
TTITLE14=Lock and Key Blues
TTITLE15=Treated Like a Dog
TTITLE16=My Driving Wheel
TTITLE17=Another Little Girl
TTITLE18=Ripley Rumbling Blues
TTITLE19=Rolling Stone
TTITLE20=Perlina Blues
TTITLE21=Cross the Santa Fe
TTITLE22=Howling Man Blues
TTITLE23=Midnight Dream
EXTD=
EXTT0=
EXTT1=
EXTT2=
EXTT3=
EXTT4=
EXTT5=
EXTT6=
EXTT7=
EXTT8=
EXTT9=
EXTT10=
EXTT11=
EXTT12=
EXTT13=
EXTT14=
EXTT15=
EXTT16=
EXTT17=
EXTT18=
EXTT19=
EXTT20=
EXTT21=
EXTT22=
EXTT23=
PLAYORDER=
